<mxfile host="app.diagrams.net" modified="2024-07-22T16:54:14.621Z" agent="Mozilla/5.0 (Windows NT 10.0; Win64; x64) AppleWebKit/537.36 (KHTML, like Gecko) Chrome/126.0.0.0 Safari/537.36" etag="PnfsRpOtdXaExzaKXj-O" version="24.7.1" type="device">
  <diagram name="Page-1" id="UaXtnu5cEBF_VdnH3w1F">
    <mxGraphModel dx="1173" dy="613" grid="1" gridSize="10" guides="1" tooltips="1" connect="1" arrows="1" fold="1" page="1" pageScale="1" pageWidth="850" pageHeight="1100" background="none" math="0" shadow="0">
      <root>
        <mxCell id="0" />
        <mxCell id="1" parent="0" />
        <mxCell id="z0BZC_xkoxGUHYxz4p3p-3" value="Student&lt;div&gt;&lt;br&gt;&lt;/div&gt;" style="whiteSpace=wrap;html=1;aspect=fixed;" vertex="1" parent="1">
          <mxGeometry x="190" y="300" width="90" height="90" as="geometry" />
        </mxCell>
        <mxCell id="z0BZC_xkoxGUHYxz4p3p-5" value="" style="endArrow=none;html=1;rounded=0;" edge="1" parent="1">
          <mxGeometry width="50" height="50" relative="1" as="geometry">
            <mxPoint x="280" y="300" as="sourcePoint" />
            <mxPoint x="330" y="250" as="targetPoint" />
          </mxGeometry>
        </mxCell>
        <mxCell id="z0BZC_xkoxGUHYxz4p3p-6" value="" style="endArrow=none;html=1;rounded=0;exitX=0;exitY=0;exitDx=0;exitDy=0;" edge="1" parent="1" source="z0BZC_xkoxGUHYxz4p3p-3">
          <mxGeometry width="50" height="50" relative="1" as="geometry">
            <mxPoint x="190" y="290" as="sourcePoint" />
            <mxPoint x="130" y="250" as="targetPoint" />
          </mxGeometry>
        </mxCell>
        <mxCell id="z0BZC_xkoxGUHYxz4p3p-7" value="StudentId" style="ellipse;whiteSpace=wrap;html=1;fontStyle=4;" vertex="1" parent="1">
          <mxGeometry x="60" y="170" width="120" height="80" as="geometry" />
        </mxCell>
        <mxCell id="z0BZC_xkoxGUHYxz4p3p-8" value="Name" style="ellipse;whiteSpace=wrap;html=1;" vertex="1" parent="1">
          <mxGeometry x="280" y="170" width="120" height="80" as="geometry" />
        </mxCell>
        <mxCell id="z0BZC_xkoxGUHYxz4p3p-9" value="" style="endArrow=none;html=1;rounded=0;" edge="1" parent="1" target="z0BZC_xkoxGUHYxz4p3p-10">
          <mxGeometry width="50" height="50" relative="1" as="geometry">
            <mxPoint x="230" y="300" as="sourcePoint" />
            <mxPoint x="230" y="150" as="targetPoint" />
          </mxGeometry>
        </mxCell>
        <mxCell id="z0BZC_xkoxGUHYxz4p3p-10" value="DOB" style="ellipse;whiteSpace=wrap;html=1;" vertex="1" parent="1">
          <mxGeometry x="170" y="110" width="120" height="80" as="geometry" />
        </mxCell>
        <mxCell id="z0BZC_xkoxGUHYxz4p3p-12" value="enrolled" style="rhombus;whiteSpace=wrap;html=1;" vertex="1" parent="1">
          <mxGeometry x="380" y="300" width="80" height="80" as="geometry" />
        </mxCell>
        <mxCell id="z0BZC_xkoxGUHYxz4p3p-13" value="" style="endArrow=none;html=1;rounded=0;entryX=0;entryY=0.5;entryDx=0;entryDy=0;" edge="1" parent="1" source="z0BZC_xkoxGUHYxz4p3p-3" target="z0BZC_xkoxGUHYxz4p3p-12">
          <mxGeometry width="50" height="50" relative="1" as="geometry">
            <mxPoint x="310" y="370" as="sourcePoint" />
            <mxPoint x="360" y="320" as="targetPoint" />
          </mxGeometry>
        </mxCell>
        <mxCell id="z0BZC_xkoxGUHYxz4p3p-14" value="courses" style="whiteSpace=wrap;html=1;aspect=fixed;" vertex="1" parent="1">
          <mxGeometry x="580" y="300" width="80" height="80" as="geometry" />
        </mxCell>
        <mxCell id="z0BZC_xkoxGUHYxz4p3p-15" value="" style="endArrow=none;html=1;rounded=0;entryX=0;entryY=0.5;entryDx=0;entryDy=0;exitX=1;exitY=0.5;exitDx=0;exitDy=0;" edge="1" parent="1" source="z0BZC_xkoxGUHYxz4p3p-12" target="z0BZC_xkoxGUHYxz4p3p-14">
          <mxGeometry width="50" height="50" relative="1" as="geometry">
            <mxPoint x="480" y="360" as="sourcePoint" />
            <mxPoint x="530" y="310" as="targetPoint" />
          </mxGeometry>
        </mxCell>
        <mxCell id="z0BZC_xkoxGUHYxz4p3p-16" value="" style="endArrow=none;html=1;rounded=0;" edge="1" parent="1">
          <mxGeometry width="50" height="50" relative="1" as="geometry">
            <mxPoint x="660" y="300" as="sourcePoint" />
            <mxPoint x="710" y="250" as="targetPoint" />
          </mxGeometry>
        </mxCell>
        <mxCell id="z0BZC_xkoxGUHYxz4p3p-17" value="" style="endArrow=none;html=1;rounded=0;exitX=0;exitY=0;exitDx=0;exitDy=0;" edge="1" parent="1" source="z0BZC_xkoxGUHYxz4p3p-14">
          <mxGeometry width="50" height="50" relative="1" as="geometry">
            <mxPoint x="540" y="280" as="sourcePoint" />
            <mxPoint x="530" y="250" as="targetPoint" />
          </mxGeometry>
        </mxCell>
        <mxCell id="z0BZC_xkoxGUHYxz4p3p-18" value="" style="endArrow=none;html=1;rounded=0;" edge="1" parent="1">
          <mxGeometry width="50" height="50" relative="1" as="geometry">
            <mxPoint x="620" y="300" as="sourcePoint" />
            <mxPoint x="620" y="190" as="targetPoint" />
          </mxGeometry>
        </mxCell>
        <mxCell id="z0BZC_xkoxGUHYxz4p3p-19" value="CourseId" style="ellipse;whiteSpace=wrap;html=1;fontStyle=4;" vertex="1" parent="1">
          <mxGeometry x="460" y="170" width="120" height="80" as="geometry" />
        </mxCell>
        <mxCell id="z0BZC_xkoxGUHYxz4p3p-20" value="CourseName" style="ellipse;whiteSpace=wrap;html=1;" vertex="1" parent="1">
          <mxGeometry x="560" y="110" width="120" height="80" as="geometry" />
        </mxCell>
        <mxCell id="z0BZC_xkoxGUHYxz4p3p-21" value="Credits" style="ellipse;whiteSpace=wrap;html=1;" vertex="1" parent="1">
          <mxGeometry x="640" y="250" width="120" height="80" as="geometry" />
        </mxCell>
        <mxCell id="z0BZC_xkoxGUHYxz4p3p-23" value="" style="endArrow=none;html=1;rounded=0;" edge="1" parent="1">
          <mxGeometry width="50" height="50" relative="1" as="geometry">
            <mxPoint x="140" y="440" as="sourcePoint" />
            <mxPoint x="190" y="390" as="targetPoint" />
          </mxGeometry>
        </mxCell>
        <mxCell id="z0BZC_xkoxGUHYxz4p3p-25" value="Age" style="ellipse;whiteSpace=wrap;html=1;align=center;dashed=1;" vertex="1" parent="1">
          <mxGeometry x="70" y="440" width="110" height="70" as="geometry" />
        </mxCell>
        <mxCell id="z0BZC_xkoxGUHYxz4p3p-28" value="Customer" style="shape=umlActor;verticalLabelPosition=bottom;verticalAlign=top;html=1;" vertex="1" parent="1">
          <mxGeometry x="110" y="1050" width="30" height="60" as="geometry" />
        </mxCell>
        <mxCell id="z0BZC_xkoxGUHYxz4p3p-29" value="" style="html=1;whiteSpace=wrap;" vertex="1" parent="1">
          <mxGeometry x="190" y="650" width="430" height="870" as="geometry" />
        </mxCell>
        <mxCell id="z0BZC_xkoxGUHYxz4p3p-30" value="View Products" style="ellipse;whiteSpace=wrap;html=1;" vertex="1" parent="1">
          <mxGeometry x="315" y="850" width="140" height="70" as="geometry" />
        </mxCell>
        <mxCell id="z0BZC_xkoxGUHYxz4p3p-31" value="Add products to cart" style="ellipse;whiteSpace=wrap;html=1;" vertex="1" parent="1">
          <mxGeometry x="320" y="940" width="140" height="70" as="geometry" />
        </mxCell>
        <mxCell id="z0BZC_xkoxGUHYxz4p3p-32" value="Checkout" style="ellipse;whiteSpace=wrap;html=1;" vertex="1" parent="1">
          <mxGeometry x="320" y="1030" width="140" height="70" as="geometry" />
        </mxCell>
        <mxCell id="z0BZC_xkoxGUHYxz4p3p-34" value="Payment" style="ellipse;whiteSpace=wrap;html=1;" vertex="1" parent="1">
          <mxGeometry x="320" y="1120" width="140" height="70" as="geometry" />
        </mxCell>
        <mxCell id="z0BZC_xkoxGUHYxz4p3p-35" value="Add/Remove products" style="ellipse;whiteSpace=wrap;html=1;" vertex="1" parent="1">
          <mxGeometry x="320" y="1220" width="140" height="70" as="geometry" />
        </mxCell>
        <mxCell id="z0BZC_xkoxGUHYxz4p3p-37" value="Update Product details" style="ellipse;whiteSpace=wrap;html=1;" vertex="1" parent="1">
          <mxGeometry x="320" y="1310" width="140" height="70" as="geometry" />
        </mxCell>
        <mxCell id="z0BZC_xkoxGUHYxz4p3p-38" value="Seller" style="shape=umlActor;verticalLabelPosition=bottom;verticalAlign=top;html=1;" vertex="1" parent="1">
          <mxGeometry x="700" y="1050" width="30" height="60" as="geometry" />
        </mxCell>
        <mxCell id="z0BZC_xkoxGUHYxz4p3p-45" value="" style="endArrow=open;endFill=1;endSize=12;html=1;rounded=0;entryX=0;entryY=0.5;entryDx=0;entryDy=0;" edge="1" parent="1" target="z0BZC_xkoxGUHYxz4p3p-30">
          <mxGeometry width="160" relative="1" as="geometry">
            <mxPoint x="160" y="1100" as="sourcePoint" />
            <mxPoint x="290" y="1030" as="targetPoint" />
          </mxGeometry>
        </mxCell>
        <mxCell id="z0BZC_xkoxGUHYxz4p3p-46" value="" style="endArrow=open;endFill=1;endSize=12;html=1;rounded=0;entryX=0.021;entryY=0.695;entryDx=0;entryDy=0;entryPerimeter=0;" edge="1" parent="1" target="z0BZC_xkoxGUHYxz4p3p-31">
          <mxGeometry width="160" relative="1" as="geometry">
            <mxPoint x="160" y="1100" as="sourcePoint" />
            <mxPoint x="325" y="895" as="targetPoint" />
          </mxGeometry>
        </mxCell>
        <mxCell id="z0BZC_xkoxGUHYxz4p3p-47" value="" style="endArrow=open;endFill=1;endSize=12;html=1;rounded=0;entryX=0;entryY=0.5;entryDx=0;entryDy=0;" edge="1" parent="1" target="z0BZC_xkoxGUHYxz4p3p-32">
          <mxGeometry width="160" relative="1" as="geometry">
            <mxPoint x="160" y="1100" as="sourcePoint" />
            <mxPoint x="333" y="999" as="targetPoint" />
          </mxGeometry>
        </mxCell>
        <mxCell id="z0BZC_xkoxGUHYxz4p3p-48" value="" style="endArrow=open;endFill=1;endSize=12;html=1;rounded=0;" edge="1" parent="1" target="z0BZC_xkoxGUHYxz4p3p-34">
          <mxGeometry width="160" relative="1" as="geometry">
            <mxPoint x="160" y="1100" as="sourcePoint" />
            <mxPoint x="343" y="1009" as="targetPoint" />
          </mxGeometry>
        </mxCell>
        <mxCell id="z0BZC_xkoxGUHYxz4p3p-49" value="" style="endArrow=open;endFill=1;endSize=12;html=1;rounded=0;entryX=1;entryY=0.5;entryDx=0;entryDy=0;" edge="1" parent="1" target="z0BZC_xkoxGUHYxz4p3p-30">
          <mxGeometry width="160" relative="1" as="geometry">
            <mxPoint x="680" y="1080" as="sourcePoint" />
            <mxPoint x="653" y="880" as="targetPoint" />
          </mxGeometry>
        </mxCell>
        <mxCell id="z0BZC_xkoxGUHYxz4p3p-50" value="" style="endArrow=open;endFill=1;endSize=12;html=1;rounded=0;entryX=0.991;entryY=0.394;entryDx=0;entryDy=0;entryPerimeter=0;" edge="1" parent="1" target="z0BZC_xkoxGUHYxz4p3p-35">
          <mxGeometry width="160" relative="1" as="geometry">
            <mxPoint x="680" y="1080" as="sourcePoint" />
            <mxPoint x="485" y="995" as="targetPoint" />
          </mxGeometry>
        </mxCell>
        <mxCell id="z0BZC_xkoxGUHYxz4p3p-51" value="" style="endArrow=open;endFill=1;endSize=12;html=1;rounded=0;entryX=0.991;entryY=0.417;entryDx=0;entryDy=0;entryPerimeter=0;" edge="1" parent="1" target="z0BZC_xkoxGUHYxz4p3p-37">
          <mxGeometry width="160" relative="1" as="geometry">
            <mxPoint x="680" y="1080" as="sourcePoint" />
            <mxPoint x="469" y="1258" as="targetPoint" />
          </mxGeometry>
        </mxCell>
        <mxCell id="z0BZC_xkoxGUHYxz4p3p-54" value="Entity Relationship Diagram&lt;div style=&quot;font-size: 23px;&quot;&gt;&lt;br style=&quot;font-size: 23px;&quot;&gt;&lt;/div&gt;" style="text;html=1;align=center;verticalAlign=middle;resizable=0;points=[];autosize=1;strokeColor=none;fillColor=none;rotation=1;fontSize=23;" vertex="1" parent="1">
          <mxGeometry x="230" y="40" width="310" height="70" as="geometry" />
        </mxCell>
        <mxCell id="z0BZC_xkoxGUHYxz4p3p-55" value="Use Case Diagram" style="text;html=1;align=center;verticalAlign=middle;resizable=0;points=[];autosize=1;strokeColor=none;fillColor=none;fontSize=24;" vertex="1" parent="1">
          <mxGeometry x="260" y="490" width="230" height="40" as="geometry" />
        </mxCell>
        <mxCell id="z0BZC_xkoxGUHYxz4p3p-56" value="Login" style="ellipse;whiteSpace=wrap;html=1;" vertex="1" parent="1">
          <mxGeometry x="315" y="760" width="140" height="70" as="geometry" />
        </mxCell>
        <mxCell id="z0BZC_xkoxGUHYxz4p3p-57" value="" style="endArrow=open;endFill=1;endSize=12;html=1;rounded=0;entryX=0.009;entryY=0.679;entryDx=0;entryDy=0;entryPerimeter=0;" edge="1" parent="1" target="z0BZC_xkoxGUHYxz4p3p-56">
          <mxGeometry width="160" relative="1" as="geometry">
            <mxPoint x="160" y="1100" as="sourcePoint" />
            <mxPoint x="325" y="895" as="targetPoint" />
          </mxGeometry>
        </mxCell>
        <mxCell id="z0BZC_xkoxGUHYxz4p3p-58" value="" style="endArrow=open;endFill=1;endSize=12;html=1;rounded=0;entryX=1;entryY=0.5;entryDx=0;entryDy=0;" edge="1" parent="1" target="z0BZC_xkoxGUHYxz4p3p-56">
          <mxGeometry width="160" relative="1" as="geometry">
            <mxPoint x="680" y="1080" as="sourcePoint" />
            <mxPoint x="465" y="895" as="targetPoint" />
          </mxGeometry>
        </mxCell>
        <mxCell id="z0BZC_xkoxGUHYxz4p3p-59" value="Logout" style="ellipse;whiteSpace=wrap;html=1;" vertex="1" parent="1">
          <mxGeometry x="320" y="1400" width="140" height="70" as="geometry" />
        </mxCell>
        <mxCell id="z0BZC_xkoxGUHYxz4p3p-60" value="" style="endArrow=open;endFill=1;endSize=12;html=1;rounded=0;entryX=0.991;entryY=0.393;entryDx=0;entryDy=0;entryPerimeter=0;" edge="1" parent="1" target="z0BZC_xkoxGUHYxz4p3p-59">
          <mxGeometry width="160" relative="1" as="geometry">
            <mxPoint x="680" y="1080" as="sourcePoint" />
            <mxPoint x="469" y="1349" as="targetPoint" />
          </mxGeometry>
        </mxCell>
        <mxCell id="z0BZC_xkoxGUHYxz4p3p-65" value="" style="edgeStyle=orthogonalEdgeStyle;rounded=0;orthogonalLoop=1;jettySize=auto;html=1;" edge="1" parent="1" source="z0BZC_xkoxGUHYxz4p3p-62" target="z0BZC_xkoxGUHYxz4p3p-64">
          <mxGeometry relative="1" as="geometry" />
        </mxCell>
        <mxCell id="z0BZC_xkoxGUHYxz4p3p-66" style="edgeStyle=orthogonalEdgeStyle;rounded=0;orthogonalLoop=1;jettySize=auto;html=1;entryX=0.429;entryY=-0.036;entryDx=0;entryDy=0;entryPerimeter=0;" edge="1" parent="1" target="z0BZC_xkoxGUHYxz4p3p-63">
          <mxGeometry relative="1" as="geometry">
            <mxPoint x="350" y="580" as="sourcePoint" />
            <mxPoint x="280" y="670" as="targetPoint" />
            <Array as="points">
              <mxPoint x="280" y="580" />
            </Array>
          </mxGeometry>
        </mxCell>
        <mxCell id="z0BZC_xkoxGUHYxz4p3p-67" value="" style="edgeStyle=orthogonalEdgeStyle;rounded=0;orthogonalLoop=1;jettySize=auto;html=1;" edge="1" parent="1" source="z0BZC_xkoxGUHYxz4p3p-62" target="z0BZC_xkoxGUHYxz4p3p-64">
          <mxGeometry relative="1" as="geometry" />
        </mxCell>
        <mxCell id="z0BZC_xkoxGUHYxz4p3p-62" value="Admin&lt;div&gt;&lt;br&gt;&lt;/div&gt;" style="shape=umlActor;verticalLabelPosition=bottom;verticalAlign=top;html=1;" vertex="1" parent="1">
          <mxGeometry x="360" y="550" width="30" height="60" as="geometry" />
        </mxCell>
        <mxCell id="z0BZC_xkoxGUHYxz4p3p-63" value="Manage Accounts" style="ellipse;whiteSpace=wrap;html=1;" vertex="1" parent="1">
          <mxGeometry x="220" y="680" width="140" height="70" as="geometry" />
        </mxCell>
        <mxCell id="z0BZC_xkoxGUHYxz4p3p-64" value="Delete Accounts" style="ellipse;whiteSpace=wrap;html=1;" vertex="1" parent="1">
          <mxGeometry x="410" y="680" width="140" height="70" as="geometry" />
        </mxCell>
        <mxCell id="z0BZC_xkoxGUHYxz4p3p-68" style="edgeStyle=orthogonalEdgeStyle;rounded=0;orthogonalLoop=1;jettySize=auto;html=1;entryX=0.438;entryY=-0.036;entryDx=0;entryDy=0;entryPerimeter=0;" edge="1" parent="1" target="z0BZC_xkoxGUHYxz4p3p-56">
          <mxGeometry relative="1" as="geometry">
            <mxPoint x="375" y="640" as="sourcePoint" />
            <mxPoint x="376" y="758" as="targetPoint" />
          </mxGeometry>
        </mxCell>
        <mxCell id="z0BZC_xkoxGUHYxz4p3p-69" style="edgeStyle=orthogonalEdgeStyle;rounded=0;orthogonalLoop=1;jettySize=auto;html=1;exitX=0.5;exitY=1;exitDx=0;exitDy=0;" edge="1" parent="1" source="z0BZC_xkoxGUHYxz4p3p-29" target="z0BZC_xkoxGUHYxz4p3p-29">
          <mxGeometry relative="1" as="geometry" />
        </mxCell>
      </root>
    </mxGraphModel>
  </diagram>
</mxfile>
